HIERARCHY
ROOT Hips
{
	OFFSET 0.000000 0.000000 0.000000
	CHANNELS 6 Xposition Yposition Zposition Xrotation Yrotation Zrotation
	JOINT Spine
	{
		OFFSET 0.000000 0.044490 0.066735
		CHANNELS 3 Xrotation Yrotation Zrotation
		JOINT Spine1
		{
			OFFSET 0.000000 0.015451 0.087628
			CHANNELS 3 Xrotation Yrotation Zrotation
			JOINT Spine2
			{
				OFFSET 0.000000 0.007755 0.088641
				CHANNELS 3 Xrotation Yrotation Zrotation
				JOINT Spine3
				{
					OFFSET 0.000000 0.000000 0.088980
					CHANNELS 3 Xrotation Yrotation Zrotation
					JOINT Neck
					{
						OFFSET 0.000000 -0.033367 0.233572
						CHANNELS 3 Xrotation Yrotation Zrotation
						JOINT Head
						{
							OFFSET 0.000000 -0.021245 0.120488
							CHANNELS 3 Xrotation Yrotation Zrotation
							End Site
							{
								OFFSET 0.000000 0.000000 0.000000
							}
						}
					}
					JOINT RightShoulder
					{
						OFFSET -0.026917 -0.044862 0.145355
						CHANNELS 3 Xrotation Yrotation Zrotation
						JOINT RightArm
						{
							OFFSET -0.133690 -0.000000 0.000000
							CHANNELS 3 Xrotation Yrotation Zrotation
							JOINT RightForeArm
							{
								OFFSET -0.257725 -0.000000 0.000000
								CHANNELS 3 Xrotation Yrotation Zrotation
								JOINT RightHand
								{
									OFFSET -0.216749 -0.000000 0.000000
									CHANNELS 3 Xrotation Yrotation Zrotation
									JOINT RightHandEnd
									{
										OFFSET -0.062518 -0.000000 0.000000
										CHANNELS 3 Xrotation Yrotation Zrotation
										End Site
										{
											OFFSET 0.000000 0.000000 0.000000
										}
									}
									JOINT RightHandThumb1
									{
										OFFSET -0.025007 -0.041679 -0.016672
										CHANNELS 3 Xrotation Yrotation Zrotation
										End Site
										{
											OFFSET 0.000000 0.000000 0.000000
										}
									}
								}
							}
						}
					}
					JOINT LeftShoulder
					{
						OFFSET 0.026917 -0.044862 0.145355
						CHANNELS 3 Xrotation Yrotation Zrotation
						JOINT LeftArm
						{
							OFFSET 0.133690 0.000000 0.000000
							CHANNELS 3 Xrotation Yrotation Zrotation
							JOINT LeftForeArm
							{
								OFFSET 0.257725 0.000000 0.000000
								CHANNELS 3 Xrotation Yrotation Zrotation
								JOINT LeftHand
								{
									OFFSET 0.216749 0.000000 0.000000
									CHANNELS 3 Xrotation Yrotation Zrotation
									JOINT LeftHandEnd
									{
										OFFSET 0.062518 0.000000 0.000000
										CHANNELS 3 Xrotation Yrotation Zrotation
										End Site
										{
											OFFSET 0.000000 0.000000 0.000000
										}
									}
									JOINT LeftHandThumb1
									{
										OFFSET 0.025007 -0.041679 -0.016672
										CHANNELS 3 Xrotation Yrotation Zrotation
										End Site
										{
											OFFSET 0.000000 0.000000 0.000000
										}
									}
								}
							}
						}
					}
				}
			}
		}
	}
	JOINT RightUpLeg
	{
		OFFSET -0.079855 0.000000 -0.023329
		CHANNELS 3 Xrotation Yrotation Zrotation
		JOINT RightLeg
		{
			OFFSET 0.000000 0.000000 -0.366572
			CHANNELS 3 Xrotation Yrotation Zrotation
			JOINT RightFoot
			{
				OFFSET 0.000000 0.000000 -0.363650
				CHANNELS 3 Xrotation Yrotation Zrotation
				JOINT RightToeBase
				{
					OFFSET 0.000000 -0.114715 -0.041753
					CHANNELS 3 Xrotation Yrotation Zrotation
					End Site
					{
						OFFSET 0.000000 0.000000 0.000000
					}
				}
			}
		}
	}
	JOINT LeftUpLeg
	{
		OFFSET 0.079855 0.000000 -0.023329
		CHANNELS 3 Xrotation Yrotation Zrotation
		JOINT LeftLeg
		{
			OFFSET 0.000000 0.000000 -0.366572
			CHANNELS 3 Xrotation Yrotation Zrotation
			JOINT LeftFoot
			{
				OFFSET 0.000000 0.000000 -0.363650
				CHANNELS 3 Xrotation Yrotation Zrotation
				JOINT LeftToeBase
				{
					OFFSET 0.000000 -0.114715 -0.041753
					CHANNELS 3 Xrotation Yrotation Zrotation
					End Site
					{
						OFFSET 0.000000 0.000000 0.000000
					}
				}
			}
		}
	}
}
MOTION
Frames: 6
Frame Time: 0.033333
-0.015956 0.047645 0.821797 -6.999500 14.206300 -179.758500 0.355100 1.110400 -0.191800 -0.035800 -0.598300 -0.108700 3.639600 0.324000 -1.496800 1.133300 -0.096600 -0.372000 -4.060800 3.303000 12.236400 3.444800 5.180800 13.476500 7.892900 -6.109400 10.440500 11.006100 -18.486200 34.079400 0.000000 0.000000 95.464500 4.662100 26.488000 -1.630300 0.000000 0.000000 0.000000 0.000000 0.000000 0.000000 7.165500 3.907800 -7.729700 51.677600 57.392900 -38.702000 0.000000 0.000000 -118.435200 8.924600 -8.376400 2.930000 0.000000 0.000000 0.000000 0.000000 0.000000 0.000000 -15.998600 12.638200 -16.467200 17.592900 0.000000 0.000000 -10.996300 3.986500 -4.288600 0.683800 0.000000 0.000000 -12.961100 -5.153800 21.293900 65.301200 0.000000 0.000000 -2.025300 10.238000 17.812800 -25.759000 0.000000 0.000000 
-0.020203 0.045710 0.825599 -7.381900 16.272600 -177.754300 0.531400 1.682300 -0.279400 0.175900 -0.466800 -0.096200 3.554700 0.668000 -2.078000 0.989700 0.091900 -0.710900 -4.734900 3.736500 12.227200 3.261000 5.335300 13.163800 8.213400 -5.964500 9.528600 10.858400 -19.241200 33.086000 0.000000 0.000000 96.697400 5.146000 26.434700 -2.055800 0.000000 0.000000 0.000000 0.000000 0.000000 0.000000 7.061100 3.540300 -8.019200 51.678400 57.166800 -38.700900 0.000000 0.000000 -118.431300 7.858500 -8.555300 3.281400 0.000000 0.000000 0.000000 0.000000 0.000000 0.000000 -15.893200 15.377500 -16.821000 17.261500 0.000000 0.000000 -10.627300 4.112700 -4.951800 0.817400 0.000000 0.000000 -12.588500 -8.725800 19.632600 65.726500 0.000000 0.000000 -2.670300 9.634900 17.410400 -26.138800 0.000000 0.000000 
-0.024265 0.043155 0.829285 -7.696600 18.503500 -175.880200 0.869300 2.273100 -0.360700 0.479000 -0.408000 -0.082800 3.510300 1.233800 -2.566000 0.858200 0.387100 -1.183300 -5.369000 4.271500 12.472400 3.076600 5.191900 12.772500 8.948700 -5.378300 9.049800 10.565100 -20.706200 32.196400 0.000000 0.000000 97.890800 6.032100 26.536900 -2.713700 0.000000 0.000000 0.000000 0.000000 0.000000 0.000000 7.272900 3.412100 -7.903600 49.880000 56.494900 -37.347400 0.000000 0.000000 -118.301200 6.951400 -9.158700 3.556400 0.000000 0.000000 0.000000 0.000000 0.000000 0.000000 -15.829100 18.228700 -16.633800 17.176700 0.000000 0.000000 -10.248400 4.374200 -5.937900 0.913300 0.000000 0.000000 -12.599600 -13.191900 18.710400 65.930300 0.000000 0.000000 -3.341000 9.043300 16.978500 -26.521100 0.000000 0.000000 
-0.028247 0.040406 0.833018 -7.954000 20.817000 -173.769700 1.296500 2.794500 -0.401300 0.850100 -0.377700 -0.064700 3.516500 1.993500 -3.092200 0.730100 0.801300 -1.792300 -5.827700 4.981400 12.725900 3.085900 4.600000 12.242000 10.098900 -4.383400 8.658200 10.344900 -22.946900 31.676600 0.000000 0.000000 99.053300 6.946200 26.645200 -3.382900 0.000000 0.000000 0.000000 0.000000 0.000000 0.000000 7.602500 3.554400 -7.488900 47.121400 54.953300 -35.350100 0.000000 0.000000 -117.745400 7.028300 -9.738800 3.535200 0.000000 0.000000 0.000000 0.000000 0.000000 0.000000 -15.473000 21.201700 -16.567600 17.087000 0.000000 0.000000 -9.831000 4.746700 -7.054600 1.028500 0.000000 0.000000 -13.272100 -18.175500 17.792800 65.912200 0.000000 0.000000 -3.732300 8.010700 16.491400 -26.672500 0.000000 0.000000 
-0.032045 0.037523 0.836828 -8.230500 23.194400 -171.304900 1.757800 3.277200 -0.363500 1.270500 -0.293300 -0.023100 3.568900 2.954400 -3.675200 0.596700 1.285200 -2.480100 -6.025300 5.665000 12.695300 3.201100 3.766000 11.661700 11.378600 -3.110700 8.005700 10.671500 -25.976900 31.809100 0.000000 0.000000 100.055500 7.573000 26.501600 -3.905000 0.000000 0.000000 0.000000 0.000000 0.000000 0.000000 7.786200 3.898500 -7.125800 44.529200 52.511000 -33.370900 0.000000 0.000000 -116.786000 7.024600 -10.358400 3.413300 0.000000 0.000000 0.000000 0.000000 0.000000 0.000000 -14.719300 24.346100 -17.180000 16.916300 0.000000 0.000000 -9.409600 5.043400 -7.961600 1.150800 0.000000 0.000000 -14.922000 -23.416300 16.533700 65.580000 0.000000 0.000000 -3.863000 7.089600 15.933100 -26.803300 0.000000 0.000000 
-0.035425 0.034442 0.840555 -8.518400 25.525400 -168.686500 2.280900 3.731900 -0.225200 1.758500 -0.119300 0.041800 3.652500 4.039400 -4.260200 0.457600 1.773700 -3.170300 -6.020400 6.224800 12.358600 3.269500 2.905900 11.062200 12.519200 -1.589300 7.065200 11.910900 -29.793800 32.750000 0.000000 0.000000 100.856800 8.072700 26.120200 -4.350600 0.000000 0.000000 0.000000 0.000000 0.000000 0.000000 7.825100 4.387300 -7.074100 42.563200 49.377600 -31.640700 0.000000 0.000000 -115.597100 6.375900 -10.933500 3.387800 0.000000 0.000000 0.000000 0.000000 0.000000 0.000000 -13.573500 27.483200 -18.462000 16.628200 0.000000 0.000000 -8.978400 5.168300 -8.563300 1.282800 0.000000 0.000000 -17.545600 -28.927800 15.285800 64.478900 0.000000 0.000000 -3.589500 6.472900 15.417900 -27.100700 0.000000 0.000000 
